<svg width="32" height="32" viewBox="0 0 32 32" fill="none" xmlns="http://www.w3.org/2000/svg">
<path d="M16 11.6667C15.8667 11.6667 15.7467 11.64 15.6133 11.5867C15.24 11.44 15 11.0667 15 10.6667V2.66666C15 2.11999 15.4533 1.66666 16 1.66666C16.5467 1.66666 17 2.11999 17 2.66666V8.25332L17.96 7.29332C18.3467 6.90666 18.9867 6.90666 19.3733 7.29332C19.76 7.67999 19.76 8.31999 19.3733 8.70666L16.7067 11.3733C16.52 11.56 16.2533 11.6667 16 11.6667Z" fill="#292D32"/>
<path d="M16 11.6667C15.7467 11.6667 15.4933 11.5733 15.2933 11.3733L12.6267 8.70666C12.24 8.31999 12.24 7.67999 12.6267 7.29333C13.0133 6.90666 13.6533 6.90666 14.04 7.29333L16.7067 9.95999C17.0933 10.3467 17.0933 10.9867 16.7067 11.3733C16.5067 11.5733 16.2533 11.6667 16 11.6667Z" fill="#292D32"/>
<path d="M21.3333 30.3333H10.6667C3 30.3333 3 26.2667 3 22.6667V21.3333C3 18.36 3 15 9.33333 15C10.92 15 11.5067 15.3867 12.3333 16C12.3733 16.04 12.4267 16.0667 12.4667 16.12L13.8267 17.56C14.9733 18.7733 17.0533 18.7733 18.2 17.56L19.56 16.12C19.6 16.08 19.64 16.04 19.6933 16C20.52 15.3733 21.1067 15 22.6933 15C29.0267 15 29.0267 18.36 29.0267 21.3333V22.6667C29 27.76 26.4267 30.3333 21.3333 30.3333ZM9.33333 17C5 17 5 18.36 5 21.3333V22.6667C5 26.32 5 28.3333 10.6667 28.3333H21.3333C25.3067 28.3333 27 26.64 27 22.6667V21.3333C27 18.36 27 17 22.6667 17C21.7067 17 21.5067 17.12 20.9333 17.5467L19.64 18.92C18.68 19.9333 17.3867 20.4933 16 20.4933C14.6133 20.4933 13.32 19.9333 12.36 18.92L11.0667 17.5467C10.4933 17.12 10.2933 17 9.33333 17Z" fill="#292D32"/>
<path d="M6.66666 17C6.11999 17 5.66666 16.5467 5.66666 16V10.6667C5.66666 8.08 5.66666 4.86667 10.5733 4.4C11.12 4.34667 11.6133 4.74667 11.6667 5.30667C11.72 5.85333 11.32 6.34667 10.76 6.4C7.66666 6.68 7.66666 7.93333 7.66666 10.6667V16C7.66666 16.5467 7.21332 17 6.66666 17Z" fill="#292D32"/>
<path d="M25.3333 17C24.7867 17 24.3333 16.5467 24.3333 16V10.6667C24.3333 7.93334 24.3333 6.68001 21.24 6.38668C20.6933 6.33334 20.2933 5.84001 20.3467 5.29334C20.4 4.74668 20.88 4.33334 21.44 4.40001C26.3467 4.86668 26.3467 8.08001 26.3467 10.6667V16C26.3333 16.5467 25.88 17 25.3333 17Z" fill="#292D32"/>
</svg>
