<svg width="30" height="33" viewBox="0 0 30 33" fill="none" xmlns="http://www.w3.org/2000/svg">
<path d="M18.75 31.2812H11.25C4.4625 31.2812 1.5625 28.0912 1.5625 20.625V12.375C1.5625 4.90875 4.4625 1.71875 11.25 1.71875H17.5C18.0125 1.71875 18.4375 2.18625 18.4375 2.75C18.4375 3.31375 18.0125 3.78125 17.5 3.78125H11.25C5.4875 3.78125 3.4375 6.03625 3.4375 12.375V20.625C3.4375 26.9638 5.4875 29.2188 11.25 29.2188H18.75C24.5125 29.2188 26.5625 26.9638 26.5625 20.625V13.75C26.5625 13.1862 26.9875 12.7188 27.5 12.7188C28.0125 12.7188 28.4375 13.1862 28.4375 13.75V20.625C28.4375 28.0912 25.5375 31.2812 18.75 31.2812Z" fill="#076DB1"/>
<path d="M27.5 14.7812H22.5C18.225 14.7812 16.5625 12.9524 16.5625 8.24992V2.74992C16.5625 2.33742 16.7875 1.95242 17.1375 1.80117C17.4875 1.63617 17.8875 1.73242 18.1625 2.02117L28.1625 13.0212C28.425 13.3099 28.5125 13.7637 28.3625 14.1487C28.2125 14.5337 27.875 14.7812 27.5 14.7812ZM18.4375 5.23867V8.24992C18.4375 11.7974 19.275 12.7187 22.5 12.7187H25.2375L18.4375 5.23867Z" fill="#076DB1"/>
<path d="M16.25 18.9062H8.75C8.2375 18.9062 7.8125 18.4388 7.8125 17.875C7.8125 17.3113 8.2375 16.8438 8.75 16.8438H16.25C16.7625 16.8438 17.1875 17.3113 17.1875 17.875C17.1875 18.4388 16.7625 18.9062 16.25 18.9062Z" fill="#076DB1"/>
<path d="M13.75 24.4062H8.75C8.2375 24.4062 7.8125 23.9388 7.8125 23.375C7.8125 22.8113 8.2375 22.3438 8.75 22.3438H13.75C14.2625 22.3438 14.6875 22.8113 14.6875 23.375C14.6875 23.9388 14.2625 24.4062 13.75 24.4062Z" fill="#076DB1"/>
</svg>
