<svg width="33" height="33" viewBox="0 0 33 33" fill="none" xmlns="http://www.w3.org/2000/svg">
<path d="M16.5 19.4838C13.5713 19.4838 11.1788 17.105 11.1788 14.1625C11.1788 11.22 13.5713 8.85501 16.5 8.85501C19.4288 8.85501 21.8213 11.2338 21.8213 14.1763C21.8213 17.1188 19.4288 19.4838 16.5 19.4838ZM16.5 10.9175C14.7125 10.9175 13.2413 12.375 13.2413 14.1763C13.2413 15.9775 14.6988 17.435 16.5 17.435C18.3013 17.435 19.7588 15.9775 19.7588 14.1763C19.7588 12.375 18.2875 10.9175 16.5 10.9175Z" fill="#292D32"/>
<path d="M16.5 31.295C14.465 31.295 12.4162 30.525 10.8212 28.9988C6.765 25.0938 2.2825 18.865 3.97375 11.4537C5.5 4.73 11.3712 1.71875 16.5 1.71875C16.5 1.71875 16.5 1.71875 16.5137 1.71875C21.6425 1.71875 27.5137 4.73 29.04 11.4675C30.7175 18.8787 26.235 25.0938 22.1787 28.9988C20.5837 30.525 18.535 31.295 16.5 31.295ZM16.5 3.78125C12.4987 3.78125 7.35625 5.9125 5.995 11.9075C4.51 18.3837 8.58 23.9662 12.265 27.5C14.6437 29.7962 18.37 29.7962 20.7487 27.5C24.42 23.9662 28.49 18.3837 27.0325 11.9075C25.6575 5.9125 20.5012 3.78125 16.5 3.78125Z" fill="#292D32"/>
</svg>
