<svg width="29" height="30" viewBox="0 0 29 30" fill="none" xmlns="http://www.w3.org/2000/svg">
<path d="M21.8919 30C20.3649 30 18.7568 29.6233 17.0946 28.8977C15.473 28.186 13.8378 27.2093 12.2432 26.0233C10.6622 24.8233 9.13514 23.4837 7.68919 22.0186C6.25676 20.5256 4.95946 18.9488 3.81081 17.3302C2.64865 15.6558 1.71622 13.9814 1.05405 12.3628C0.351351 10.6326 0 8.95814 0 7.38139C0 6.29302 0.189189 5.26046 0.554054 4.29767C0.932432 3.30698 1.54054 2.38605 2.36486 1.5907C3.40541 0.530233 4.59459 0 5.86487 0C6.39189 0 6.93243 0.125581 7.39189 0.348837C7.91892 0.6 8.36486 0.976744 8.68919 1.47907L11.8243 6.04186C12.1081 6.44651 12.3243 6.83721 12.473 7.22791C12.6486 7.64651 12.7432 8.06512 12.7432 8.46977C12.7432 9 12.5946 9.51628 12.3108 10.0047C12.1081 10.3814 11.7973 10.786 11.4054 11.1907L10.4865 12.1814C10.5 12.2233 10.5135 12.2512 10.527 12.2791C10.6892 12.5721 11.0135 13.0744 11.6351 13.8279C12.2973 14.6093 12.9189 15.3209 13.5405 15.9767C14.3378 16.786 15 17.4279 15.6216 17.9581C16.3919 18.6279 16.8919 18.9628 17.1892 19.1163L17.1622 19.186L18.1486 18.1814C18.5676 17.7488 18.973 17.4279 19.3649 17.2186C20.1081 16.7442 21.0541 16.6605 22 17.0651C22.3514 17.2186 22.7297 17.4279 23.1351 17.7209L27.6216 21.014C28.1216 21.3628 28.4865 21.8093 28.7027 22.3395C28.9054 22.8698 29 23.3581 29 23.8465C29 24.5163 28.8514 25.186 28.5676 25.814C28.2838 26.4419 27.9324 26.986 27.4865 27.4884C26.7162 28.3674 25.8784 28.9953 24.9054 29.4C23.973 29.7907 22.9595 30 21.8919 30ZM5.86487 2.09302C5.12162 2.09302 4.43243 2.42791 3.77027 3.09767C3.14865 3.69767 2.71622 4.35349 2.44595 5.06512C2.16216 5.7907 2.02703 6.55814 2.02703 7.38139C2.02703 8.67907 2.32432 10.0884 2.91892 11.5395C3.52703 13.0186 4.37838 14.5535 5.45946 16.0884C6.54054 17.6233 7.77027 19.1163 9.12162 20.5256C10.473 21.907 11.9324 23.1907 13.4324 24.3209C14.8919 25.4233 16.3919 26.3163 17.8784 26.9581C20.1892 27.9767 22.3514 28.214 24.1351 27.4465C24.8243 27.1535 25.4324 26.707 25.9865 26.0651C26.2973 25.7163 26.5405 25.3395 26.7432 24.893C26.9054 24.5442 26.9865 24.1814 26.9865 23.8186C26.9865 23.5953 26.9459 23.3721 26.8378 23.1209C26.7973 23.0372 26.7162 22.8837 26.4595 22.7023L21.973 19.4093C21.7027 19.214 21.4595 19.0744 21.2297 18.9767C20.9324 18.8512 20.8108 18.7256 20.3514 19.0186C20.0811 19.1581 19.8378 19.3674 19.5676 19.6465L18.5405 20.693C18.0135 21.2233 17.2027 21.3488 16.5811 21.1116L16.2162 20.9442C15.6622 20.6372 15.0135 20.1628 14.2973 19.5349C13.6486 18.9628 12.9459 18.293 12.0946 17.4279C11.4324 16.7302 10.7703 15.9907 10.0811 15.1674C9.44595 14.4 8.98649 13.7442 8.7027 13.2L8.54054 12.7814C8.45946 12.4605 8.43243 12.2791 8.43243 12.0837C8.43243 11.5814 8.60811 11.1349 8.94595 10.786L9.95946 9.69767C10.2297 9.4186 10.4324 9.15349 10.5676 8.91628C10.6757 8.73488 10.7162 8.5814 10.7162 8.44186C10.7162 8.33023 10.6757 8.16279 10.6081 7.99535C10.5135 7.77209 10.3649 7.52093 10.1757 7.25581L7.04054 2.67907C6.90541 2.48372 6.74324 2.34419 6.54054 2.24651C6.32432 2.14884 6.09459 2.09302 5.86487 2.09302ZM17.1622 19.2L16.9459 20.1488L17.3108 19.1721C17.2432 19.1581 17.1892 19.1721 17.1622 19.2Z" fill="#292D32"/>
</svg>
