<svg width="400" height="400" viewBox="0 0 400 400" fill="none" xmlns="http://www.w3.org/2000/svg">
<path d="M350 195.834H49.9997C33.9997 195.834 20.833 182.667 20.833 166.667V111.333C20.833 100 28.6659 88.5002 39.1659 84.3336L189.166 24.334C195.499 21.834 204.5 21.834 210.833 24.334L360.833 84.3336C371.333 88.5002 379.166 100.167 379.166 111.333V166.667C379.166 182.667 366 195.834 350 195.834ZM200 47.3341C199.333 47.3341 198.667 47.3332 198.333 47.4999L48.4992 107.5C47.4992 108 45.833 110.167 45.833 111.333V166.667C45.833 169 47.6663 170.834 49.9997 170.834H350C352.333 170.834 354.166 169 354.166 166.667V111.333C354.166 110.167 352.667 108 351.5 107.5L201.5 47.4999C201.167 47.3332 200.666 47.3341 200 47.3341Z" fill="#A3BCEB"/>
<path d="M366.666 379.167H33.333C26.4997 379.167 20.833 373.5 20.833 366.667V316.667C20.833 300.667 33.9997 287.5 49.9997 287.5H350C366 287.5 379.166 300.667 379.166 316.667V366.667C379.166 373.5 373.5 379.167 366.666 379.167ZM45.833 354.167H354.166V316.667C354.166 314.333 352.333 312.5 350 312.5H49.9997C47.6663 312.5 45.833 314.333 45.833 316.667V354.167Z" fill="#A3BCEB"/>
<path d="M66.667 312.5C59.8337 312.5 54.167 306.834 54.167 300V183.333C54.167 176.5 59.8337 170.833 66.667 170.833C73.5003 170.833 79.167 176.5 79.167 183.333V300C79.167 306.834 73.5003 312.5 66.667 312.5Z" fill="#A3BCEB"/>
<path d="M133.333 312.5C126.5 312.5 120.833 306.834 120.833 300V183.333C120.833 176.5 126.5 170.833 133.333 170.833C140.166 170.833 145.833 176.5 145.833 183.333V300C145.833 306.834 140.166 312.5 133.333 312.5Z" fill="#A3BCEB"/>
<path d="M200 312.5C193.167 312.5 187.5 306.834 187.5 300V183.333C187.5 176.5 193.167 170.833 200 170.833C206.833 170.833 212.5 176.5 212.5 183.333V300C212.5 306.834 206.833 312.5 200 312.5Z" fill="#A3BCEB"/>
<path d="M266.667 312.5C259.834 312.5 254.167 306.834 254.167 300V183.333C254.167 176.5 259.834 170.833 266.667 170.833C273.5 170.833 279.167 176.5 279.167 183.333V300C279.167 306.834 273.5 312.5 266.667 312.5Z" fill="#A3BCEB"/>
<path d="M333.333 312.5C326.5 312.5 320.833 306.834 320.833 300V183.333C320.833 176.5 326.5 170.833 333.333 170.833C340.166 170.833 345.833 176.5 345.833 183.333V300C345.833 306.834 340.166 312.5 333.333 312.5Z" fill="#A3BCEB"/>
<path d="M383.334 379.167H16.667C9.83366 379.167 4.16699 373.5 4.16699 366.667C4.16699 359.833 9.83366 354.167 16.667 354.167H383.334C390.167 354.167 395.834 359.833 395.834 366.667C395.834 373.5 390.167 379.167 383.334 379.167Z" fill="#A3BCEB"/>
<path d="M200 154.167C179.333 154.167 162.5 137.333 162.5 116.667C162.5 95.9998 179.333 79.1665 200 79.1665C220.667 79.1665 237.5 95.9998 237.5 116.667C237.5 137.333 220.667 154.167 200 154.167ZM200 104.167C193.167 104.167 187.5 109.833 187.5 116.667C187.5 123.5 193.167 129.167 200 129.167C206.833 129.167 212.5 123.5 212.5 116.667C212.5 109.833 206.833 104.167 200 104.167Z" fill="#A3BCEB"/>
</svg>
