<svg width="426" height="426" viewBox="60 40 380 380" fill="none" xmlns="http://www.w3.org/2000/svg">
<path d="M117.166 338.955C111.373 340.435 105.341 336.859 103.861 331.067L64.1349 175.647C48.2085 113.337 62.3021 89.565 124.611 73.6385L223.515 48.3585C285.824 32.4321 309.597 46.5257 325.523 108.835L361.637 250.126C362.215 252.387 362.757 254.506 363.193 256.803C364.25 262.704 360.178 268.561 354.418 269.582C348.517 270.639 342.696 266.708 341.639 260.807C341.347 259.075 340.877 257.239 340.444 255.543L304.329 114.252C291.437 63.8113 279.514 56.6232 228.932 69.5521L130.029 94.8322C79.4464 107.761 72.4357 119.789 85.3285 170.229L125.054 325.649C126.535 331.442 122.959 337.474 117.166 338.955Z" fill="#A3BCEB"/>
<path d="M322.355 346.717L181.064 382.831C148.002 391.282 114.117 371.193 105.666 338.131L103.319 328.947C96.1323 300.83 113.207 272.232 141.183 265.081L341.109 213.98C346.902 212.499 352.934 216.075 354.415 221.868L367.055 271.32C375.505 304.382 355.417 338.266 322.355 346.717ZM146.6 286.275C130.21 290.464 120.323 307.14 124.513 323.53L126.86 332.714C132.349 354.19 154.17 367.127 175.647 361.638L316.937 325.523C338.414 320.034 351.35 298.213 345.861 276.737L335.93 237.882L146.6 286.275Z" fill="#A3BCEB"/>
<path d="M254.054 138.392L141.021 167.283C135.228 168.764 129.197 165.188 127.716 159.395C126.235 153.602 129.811 147.57 135.604 146.09L248.637 117.198C254.43 115.718 260.462 119.294 261.942 125.087C263.423 130.879 259.847 136.911 254.054 138.392Z" fill="#A3BCEB"/>
<path d="M224.307 198.678L153.661 216.735C147.869 218.216 141.837 214.64 140.356 208.847C138.875 203.054 142.451 197.022 148.244 195.541L218.89 177.484C224.683 176.004 230.714 179.58 232.195 185.372C233.676 191.165 230.1 197.197 224.307 198.678Z" fill="#A3BCEB"/>
</svg>
