<svg width="400" height="400" viewBox="0 0 400 400" fill="none" xmlns="http://www.w3.org/2000/svg">
<path d="M266.667 379.166H133.334C56.3335 379.166 42.0002 343.333 38.3335 308.5L25.8335 175C24.0002 157.5 23.5002 131.666 40.8335 112.333C55.8335 95.6665 80.6669 87.6665 116.667 87.6665H283.334C319.5 87.6665 344.334 95.8332 359.167 112.333C376.5 131.666 376 157.5 374.167 175.167L361.667 308.333C358 343.333 343.667 379.166 266.667 379.166ZM116.667 112.5C88.5002 112.5 69.1669 118 59.3335 129C51.1669 138 48.5002 151.833 50.6669 172.5L63.1669 306C66.0002 332.333 73.1669 354.166 133.334 354.166H266.667C326.667 354.166 334 332.333 336.834 305.833L349.334 172.666C351.5 151.833 348.834 138 340.667 129C330.834 118 311.5 112.5 283.334 112.5H116.667Z" fill="#A3BCEB"/>
<path d="M266.667 112.5C259.833 112.5 254.167 106.833 254.167 100V86.6668C254.167 57.0002 254.167 45.8335 213.333 45.8335H186.667C145.833 45.8335 145.833 57.0002 145.833 86.6668V100C145.833 106.833 140.167 112.5 133.333 112.5C126.5 112.5 120.833 106.833 120.833 100V86.6668C120.833 57.3335 120.833 20.8335 186.667 20.8335H213.333C279.167 20.8335 279.167 57.3335 279.167 86.6668V100C279.167 106.833 273.5 112.5 266.667 112.5Z" fill="#A3BCEB"/>
<path d="M200 279.167C154.167 279.167 154.167 250.833 154.167 233.833V216.667C154.167 193.167 159.833 187.5 183.333 187.5H216.666C240.166 187.5 245.833 193.167 245.833 216.667V233.333C245.833 250.667 245.833 279.167 200 279.167ZM179.167 212.5C179.167 213.833 179.167 215.333 179.167 216.667V233.833C179.167 251 179.167 254.167 200 254.167C220.833 254.167 220.833 251.5 220.833 233.667V216.667C220.833 215.333 220.833 213.833 220.833 212.5C219.5 212.5 218 212.5 216.666 212.5H183.333C182 212.5 180.5 212.5 179.167 212.5Z" fill="#A3BCEB"/>
<path d="M233.333 246.166C227.167 246.166 221.667 241.5 221 235.166C220.167 228.333 225 222 231.833 221.166C275.833 215.666 318 199 353.5 173.166C359 169 366.834 170.333 371 176C375 181.5 373.834 189.333 368.167 193.5C329.167 221.833 283.167 240 234.833 246.166C234.333 246.166 233.833 246.166 233.333 246.166Z" fill="#A3BCEB"/>
<path d="M166.667 246.333C166.167 246.333 165.667 246.333 165.167 246.333C119.5 241.167 74.9998 224.5 36.4998 198.167C30.8332 194.333 29.3332 186.5 33.1665 180.833C36.9998 175.167 44.8332 173.667 50.4998 177.5C85.6665 201.5 126.166 216.667 167.833 221.5C174.666 222.333 179.666 228.5 178.833 235.333C178.333 241.667 173 246.333 166.667 246.333Z" fill="#A3BCEB"/>
</svg>
