<svg width="300" height="300" viewBox="0 0 300 300" fill="none" xmlns="http://www.w3.org/2000/svg">
<path d="M163.125 242.75C156.375 242.75 149.25 242.125 141.5 240.875L82.8751 231.625C64.3751 228.75 50.1251 223.625 39.5001 216.125C12.1251 197.125 13.7501 164.5 17.2501 141.625L26.5001 82.9998C35.0001 29.2498 62.7501 9.12479 116.5 17.4998L175.125 26.7498C202.75 31.1248 239.875 42.2498 242.25 88.8748C242.75 96.8748 242.25 106 240.5 116.75L231.375 175.375C224.125 221.25 202.75 242.75 163.125 242.75ZM94.1251 34.3748C64.3751 34.3748 50.8751 49.4998 45.0001 85.9998L35.7501 144.625C30.0001 181.5 40.5001 194 50.2501 200.875C58.5001 206.75 70.1251 210.75 85.7501 213.125L144.375 222.375C188 229.25 206 216.125 212.875 172.375L222 113.75C223.5 104.375 224 96.4998 223.5 89.8748V89.7498C222.125 63.4998 207.25 50.6248 172.125 45.1248L113.625 35.9998C106.375 34.8748 100 34.3748 94.1251 34.3748Z" fill="#A3BCEB"/>
<path d="M183.5 284.375C172.875 284.375 160.875 282.125 147 277.5L90.6252 258.75C58.5002 248.125 41.1252 232.875 35.8752 210.625C35.0002 206.875 36.5002 202.875 39.7502 200.75C43.0002 198.625 47.2502 198.625 50.3752 200.875C58.6252 206.75 70.1252 210.75 85.7502 213.125L144.375 222.375C188 229.25 206 216.125 212.875 172.375L222 113.75C223.5 104.375 224 96.4999 223.5 89.8749C223.375 86.6249 225 83.3749 227.875 81.4999C230.75 79.6249 234.375 79.4999 237.375 81.1249C270.875 98.9999 279.75 127.625 265.25 171.375L246.5 227.75C237.625 254.25 226 270.5 209.75 278.625C201.875 282.5 193.25 284.375 183.5 284.375ZM71.6252 229.5C77.6252 233.5 85.6252 237.375 96.5002 241L152.875 259.75C174.375 266.875 189.75 267.5 201.25 261.875C212.75 256.125 221.5 243.375 228.625 221.875L247.375 165.5C257.625 134.5 253.625 118 241.75 106.875C241.5 110 241 113.25 240.5 116.75L231.375 175.375C222.875 229.125 195.125 249.25 141.375 241L82.7502 231.75C78.8752 231 75.1252 230.25 71.6252 229.5Z" fill="#A3BCEB"/>
<path d="M103 121.5C85.875 121.5 71.875 107.5 71.875 90.375C71.875 73.25 85.875 59.25 103 59.25C120.125 59.25 134.125 73.25 134.125 90.375C134.125 107.5 120.125 121.5 103 121.5ZM103 78.125C96.25 78.125 90.625 83.625 90.625 90.5C90.625 97.375 96.125 102.875 103 102.875C109.75 102.875 115.375 97.375 115.375 90.5C115.375 83.625 109.75 78.125 103 78.125Z" fill="#A3BCEB"/>
</svg>
