<svg width="400" height="400" viewBox="0 0 400 400" fill="none" xmlns="http://www.w3.org/2000/svg">
<path d="M366.667 379.167H33.3335C26.5002 379.167 20.8335 373.5 20.8335 366.667C20.8335 359.833 26.5002 354.167 33.3335 354.167H366.667C373.5 354.167 379.167 359.833 379.167 366.667C379.167 373.5 373.5 379.167 366.667 379.167Z" fill="#A3BCEB"/>
<path d="M241.667 103.832C226 103.832 210.333 100.832 195.333 94.8324C190.667 92.9991 187.5 88.3322 187.5 83.1655V33.1655C187.5 28.9989 189.5 25.1656 193 22.8323C196.5 20.4989 200.833 19.9987 204.667 21.4987C228.5 30.9987 254.833 30.9987 278.667 21.4987C282.5 19.9987 286.833 20.4989 290.333 22.8323C293.833 25.1656 295.833 28.9989 295.833 33.1655V83.1655C295.833 88.3322 292.667 92.8324 288 94.8324C273 100.832 257.333 103.832 241.667 103.832ZM212.5 74.4985C231.5 80.3319 251.833 80.3319 270.833 74.4985V50.3327C251.667 54.9993 231.667 54.9993 212.5 50.3327V74.4985Z" fill="#A3BCEB"/>
<path d="M200 145.833C193.167 145.833 187.5 140.167 187.5 133.333V83.3335C187.5 76.5002 193.167 70.8335 200 70.8335C206.833 70.8335 212.5 76.5002 212.5 83.3335V133.333C212.5 140.167 206.833 145.833 200 145.833Z" fill="#A3BCEB"/>
<path d="M333.333 379.167H66.6665C59.8332 379.167 54.1665 373.5 54.1665 366.667V183.333C54.1665 143 76.3332 120.833 116.667 120.833H283.333C323.667 120.833 345.833 143 345.833 183.333V366.667C345.833 373.5 340.167 379.167 333.333 379.167ZM79.1665 354.167H320.833V183.333C320.833 157 309.667 145.833 283.333 145.833H116.667C90.3332 145.833 79.1665 157 79.1665 183.333V354.167Z" fill="#A3BCEB"/>
<path d="M323.668 212.5H76.3345C69.5011 212.5 63.8345 206.833 63.8345 200C63.8345 193.167 69.5011 187.5 76.3345 187.5H323.668C330.501 187.5 336.168 193.167 336.168 200C336.168 206.833 330.501 212.5 323.668 212.5Z" fill="#A3BCEB"/>
<path d="M145.67 200H120.67V366.667H145.67V200Z" fill="#A3BCEB"/>
<path d="M212.337 200H187.337V366.667H212.337V200Z" fill="#A3BCEB"/>
<path d="M279.004 200H254.004V366.667H279.004V200Z" fill="#A3BCEB"/>
</svg>
