<svg width="400" height="400" viewBox="0 0 400 400" fill="none" xmlns="http://www.w3.org/2000/svg">
<path d="M263.5 336.333C259.167 336.333 254.667 336.167 249.834 335.667C241.167 335 231.334 333.333 221.167 330.833L193.167 324.167C116.334 306 91.1669 265.333 109.167 188.667L125.5 118.833C129.167 103 133.5 90.1668 138.834 79.5001C167.5 20.3334 222.334 25.6668 261.334 34.8334L289.167 41.3334C328.167 50.5001 352.834 65.0001 366.667 87.1668C380.334 109.333 382.5 137.833 373.334 176.833L357 246.5C342.667 307.5 312.834 336.333 263.5 336.333ZM218.667 54.1668C190.834 54.1668 173.167 65.6668 161.334 90.3334C157 99.3334 153.167 110.5 149.834 124.5L133.5 194.333C118.667 257.333 135.834 284.833 198.834 299.833L226.834 306.5C235.834 308.667 244.334 310 252 310.667C297.334 315.167 319.834 295.333 332.5 240.833L348.834 171.167C356.334 139 355.334 116.5 345.334 100.333C335.334 84.1667 315.667 73.1668 283.334 65.6668L255.5 59.1668C241.667 55.8334 229.334 54.1668 218.667 54.1668Z" fill="#A3BCEB"/>
<path d="M138.833 370.833C96.0001 370.833 68.6667 345.167 51.1667 291L29.8334 225.167C6.16671 151.833 27.3334 110.5 100.333 86.8334L126.667 78.3334C135.333 75.6668 141.833 73.8334 147.667 72.8334C152.5 71.8334 157.167 73.6668 160 77.5001C162.833 81.3334 163.333 86.3334 161.333 90.6668C157 99.5001 153.167 110.667 150 124.667L133.667 194.5C118.833 257.5 136 285 199 300L227 306.667C236 308.833 244.5 310.167 252.167 310.833C257.5 311.333 261.833 315 263.333 320.167C264.667 325.333 262.667 330.667 258.333 333.667C247.333 341.167 233.5 347.5 216 353.167L189.667 361.833C170.5 367.833 153.833 370.833 138.833 370.833ZM129.667 103.667L108.167 110.667C48.6667 129.833 34.5 157.833 53.6667 217.5L75 283.333C94.3334 342.833 122.333 357.167 181.833 338L208.167 329.333C209.167 329 210 328.667 211 328.333L193.333 324.167C116.5 306 91.3334 265.333 109.333 188.667L125.667 118.833C126.833 113.5 128.167 108.333 129.667 103.667Z" fill="#A3BCEB"/>
<path d="M291.5 175.167C290.5 175.167 289.5 175 288.333 174.834L207.5 154.334C200.833 152.667 196.833 145.834 198.5 139.167C200.167 132.5 207 128.5 213.667 130.167L294.5 150.667C301.167 152.334 305.167 159.167 303.5 165.834C302.167 171.334 297 175.167 291.5 175.167Z" fill="#A3BCEB"/>
<path d="M242.667 231.5C241.667 231.5 240.667 231.334 239.5 231.167L191 218.834C184.333 217.167 180.333 210.334 182 203.667C183.667 197 190.5 193 197.167 194.667L245.667 207C252.333 208.667 256.333 215.5 254.667 222.167C253.333 227.834 248.333 231.5 242.667 231.5Z" fill="#A3BCEB"/>
</svg>
