<svg width="400" height="400" viewBox="0 0 400 400" fill="none" xmlns="http://www.w3.org/2000/svg">
<path d="M283.333 362.5H116.666C43.1663 362.5 20.833 340.167 20.833 266.667V133.333C20.833 59.8333 43.1663 37.5 116.666 37.5H283.333C356.833 37.5 379.166 59.8333 379.166 133.333V266.667C379.166 340.167 356.833 362.5 283.333 362.5ZM116.666 62.5C56.9997 62.5 45.833 73.8333 45.833 133.333V266.667C45.833 326.167 56.9997 337.5 116.666 337.5H283.333C343 337.5 354.166 326.167 354.166 266.667V133.333C354.166 73.8333 343 62.5 283.333 62.5H116.666Z" fill="#A3BCEB"/>
<path d="M316.666 145.833H233.333C226.5 145.833 220.833 140.167 220.833 133.333C220.833 126.5 226.5 120.833 233.333 120.833H316.666C323.5 120.833 329.166 126.5 329.166 133.333C329.166 140.167 323.5 145.833 316.666 145.833Z" fill="#A3BCEB"/>
<path d="M316.667 212.5H250C243.167 212.5 237.5 206.833 237.5 200C237.5 193.167 243.167 187.5 250 187.5H316.667C323.5 187.5 329.167 193.167 329.167 200C329.167 206.833 323.5 212.5 316.667 212.5Z" fill="#A3BCEB"/>
<path d="M316.666 279.166H283.333C276.5 279.166 270.833 273.5 270.833 266.666C270.833 259.833 276.5 254.167 283.333 254.167H316.666C323.5 254.167 329.166 259.833 329.166 266.666C329.166 273.5 323.5 279.166 316.666 279.166Z" fill="#A3BCEB"/>
<path d="M141.667 200.667C118.167 200.667 99 181.5 99 158C99 134.5 118.167 115.333 141.667 115.333C165.167 115.333 184.333 134.5 184.333 158C184.333 181.5 165.167 200.667 141.667 200.667ZM141.667 140.333C132 140.333 124 148.333 124 158C124 167.667 132 175.667 141.667 175.667C151.333 175.667 159.333 167.667 159.333 158C159.333 148.333 151.333 140.333 141.667 140.333Z" fill="#A3BCEB"/>
<path d="M200 284.667C193.667 284.667 188.167 279.833 187.5 273.333C185.667 255.333 171.167 240.834 153 239.167C145.334 238.5 137.667 238.5 130 239.167C111.834 240.834 97.3337 255.167 95.5004 273.333C94.8337 280.167 88.6671 285.333 81.8337 284.5C75.0004 283.833 70.0004 277.667 70.667 270.833C73.667 240.833 97.5004 217 127.667 214.333C136.834 213.5 146.167 213.5 155.334 214.333C185.334 217.167 209.334 241 212.334 270.833C213 277.667 208 283.833 201.167 284.5C200.834 284.667 200.334 284.667 200 284.667Z" fill="#A3BCEB"/>
</svg>
