<svg width="400" height="400" viewBox="0 0 400 400" fill="none" xmlns="http://www.w3.org/2000/svg">
<path d="M301.667 295.833H98.3332C59.6666 295.833 37.5 273.667 37.5 235V33.3335C37.5 26.5002 43.1667 20.8335 50 20.8335H350C356.833 20.8335 362.5 26.5002 362.5 33.3335V235C362.5 273.667 340.333 295.833 301.667 295.833ZM62.5 45.8335V235C62.5 259.834 73.4999 270.833 98.3332 270.833H301.5C326.333 270.833 337.333 259.834 337.333 235V45.8335H62.5Z" fill="#A3BCEB"/>
<path d="M366.667 45.8335H33.3335C26.5002 45.8335 20.8335 40.1668 20.8335 33.3335C20.8335 26.5002 26.5002 20.8335 33.3335 20.8335H366.667C373.5 20.8335 379.167 26.5002 379.167 33.3335C379.167 40.1668 373.5 45.8335 366.667 45.8335Z" fill="#A3BCEB"/>
<path d="M133.338 379.167C128.671 379.167 124.338 376.667 122.171 372.333C119.004 366.167 121.505 358.667 127.838 355.5L187.504 325.667V283.333C187.504 276.5 193.171 270.833 200.004 270.833C206.838 270.833 212.504 276.5 212.504 283.333V333.333C212.504 338 209.838 342.334 205.504 344.5L138.838 377.834C137.171 378.667 135.171 379.167 133.338 379.167Z" fill="#A3BCEB"/>
<path d="M266.666 379.166C264.832 379.166 262.833 378.666 261.166 377.833L194.499 344.5C188.333 341.333 185.832 333.833 188.832 327.666C191.999 321.5 199.499 319 205.666 322L272.332 355.333C278.499 358.5 280.999 365.999 277.999 372.166C275.666 376.666 271.166 379.166 266.666 379.166Z" fill="#A3BCEB"/>
<path d="M124.999 195.833C121.499 195.833 117.832 194.333 115.332 191.333C110.832 186 111.665 178.167 116.998 173.667L169.499 129.833C174.332 125.833 180.498 124.167 186.332 125.167C192.332 126.167 197.499 129.833 200.665 135.166L218.165 164.333L266.998 123.667C272.332 119.333 280.165 120 284.665 125.333C289.165 130.666 288.332 138.5 282.999 143L230.498 186.833C225.665 190.833 219.499 192.5 213.665 191.5C207.665 190.5 202.498 186.834 199.332 181.5L181.832 152.334L132.999 193C130.665 194.833 127.832 195.833 124.999 195.833Z" fill="#A3BCEB"/>
</svg>
