<svg width="522" height="522" viewBox="60 60 400 400" fill="none" xmlns="http://www.w3.org/2000/svg">
<path d="M229.372 337.869C216.249 332.532 204.353 323.735 196.709 312.889L128.447 214.415C115.739 196.112 113.119 172.916 121.533 152.228C129.947 131.54 148.015 116.758 169.89 112.52L287.599 89.8651C313.749 84.8477 346.016 97.9713 361.023 119.909L428.823 218.195C441.376 236.435 443.996 259.631 435.645 280.165C427.294 300.698 409.226 315.48 387.506 319.78L270.351 342.841C257.245 345.427 242.649 343.269 229.372 337.869ZM318.851 117.87C310.051 114.29 300.434 112.718 292.346 114.467L174.792 137.185C161.096 139.891 150.12 148.741 144.845 161.709C139.571 174.678 141.1 188.614 149.172 200.174L217.435 298.649C226.858 312.197 249.399 321.365 265.603 318.24L382.758 295.179C396.453 292.473 407.275 283.56 412.55 270.591C417.824 257.623 416.296 243.687 408.377 232.19L340.577 133.903C335.726 127.252 327.805 121.512 318.851 117.87Z" fill="#A3BCEB"/>
<path d="M193.112 426.578C186.319 423.815 179.748 420.063 174.944 415.95L132.351 379.554C112.178 362.354 104.167 329.408 114.305 304.923L143.909 232.579C146.484 226.249 153.868 223.135 160.198 225.71C166.527 228.284 169.642 235.668 167.067 241.998L137.463 314.342C131.561 328.854 136.821 350.426 148.678 360.646L191.271 397.041C196.63 401.56 208.054 406.207 215.046 406.711L270.951 410.377C286.575 411.334 305.399 399.558 311.239 385.201L340.374 313.566C342.949 307.236 350.333 304.122 356.662 306.696C362.992 309.271 366.106 316.655 363.532 322.984L334.396 394.619C324.412 419.167 295.897 437.076 269.382 435.468L213.477 431.803C207.229 431.24 199.905 429.341 193.112 426.578Z" fill="#A3BCEB"/>
<path d="M382.189 377.533C375.859 374.958 372.745 367.574 375.319 361.244L412.995 268.613C415.569 262.283 422.953 259.169 429.283 261.744C435.613 264.318 438.727 271.702 436.153 278.032L398.477 370.663C395.903 376.993 388.519 380.107 382.189 377.533Z" fill="#A3BCEB"/>
</svg>
