<svg width="400" height="400" viewBox="0 0 400 400" fill="none" xmlns="http://www.w3.org/2000/svg">
<path d="M250.502 192C246.502 192 242.502 190 240.169 186.5L186.836 106.833C185.002 104 184.336 100.666 185.002 97.4998C185.669 94.3332 187.502 91.333 190.336 89.4996L284.669 26.3328C292.002 21.3328 300.836 19.6664 309.502 21.333C318.169 22.9997 325.669 27.9996 330.669 35.333L361.002 80.4995C371.169 95.6662 367.169 116.333 351.836 126.5L257.669 189.666C255.336 191.333 253.002 192 250.502 192ZM214.669 103.333L254.002 162.167L337.835 105.999C341.669 103.499 342.669 98.3329 340.002 94.6663L309.669 49.4997C308.502 47.6664 306.669 46.4999 304.502 45.9999C302.335 45.4999 300.169 45.9995 298.336 47.1662L214.669 103.333Z" fill="#A3BCEB"/>
<path d="M165.671 237.333C161.671 237.333 157.67 235.334 155.337 231.834L112.671 168.167C108.837 162.5 110.337 154.667 116.171 150.833L195.837 97.5003C198.67 95.667 202.004 95 205.17 95.6667C208.504 96.3334 211.337 98.1668 213.17 101L255.837 164.667C259.67 170.334 258.17 178.167 252.337 182L172.67 235.333C170.504 236.667 168.004 237.333 165.671 237.333ZM140.337 164.667L169.004 207.5L227.837 168.167L199.17 125.167L140.337 164.667Z" fill="#A3BCEB"/>
<path d="M87.9982 280.334C78.6649 280.334 69.3316 275.834 63.6649 267.334L44.8316 239.333C40.4983 232.833 38.9982 225.167 40.4982 217.5C41.9982 209.833 46.3315 203.334 52.8315 199L118.665 155C124.332 151.167 132.165 152.667 135.998 158.5L173.332 214.167C177.165 219.834 175.665 227.667 169.832 231.5L103.998 275.5C99.1649 278.667 93.4982 280.334 87.9982 280.334ZM122.165 182.5L66.8316 219.5C64.9983 220.834 64.3316 223.333 65.6649 225.333L84.4982 253.334C85.8316 255.167 88.3315 255.833 90.3315 254.5L145.665 217.5L122.165 182.5Z" fill="#A3BCEB"/>
<path d="M126.003 379.166C124.336 379.166 122.503 378.833 120.836 377.999C114.503 375.166 111.836 367.666 114.67 361.499L189.503 198.166C192.336 191.833 199.836 189.166 206.003 191.999C212.336 194.833 215.003 202.333 212.17 208.5L137.336 371.833C135.17 376.499 130.67 379.166 126.003 379.166Z" fill="#A3BCEB"/>
<path d="M274 379.166C269.167 379.166 264.667 376.5 262.667 371.833L188.667 208.5C185.834 202.167 188.667 194.833 194.834 191.999C201 189.166 208.5 192 211.334 198.167L285.334 361.5C288.167 367.833 285.334 375.166 279.167 378C277.5 378.833 275.834 379.166 274 379.166Z" fill="#A3BCEB"/>
</svg>
