<svg width="375" height="297" viewBox="0 0 375 297" fill="none" xmlns="http://www.w3.org/2000/svg">
<path fill-rule="evenodd" clip-rule="evenodd" d="M208.307 21.1058C215.488 24.8375 215.493 35.108 208.317 38.8474L191.538 47.5902L184.546 51.2362L177.553 54.8788L52.5194 120.025C49.6156 121.538 46.155 121.534 43.2552 120.014L37.7022 117.102L6.35707 100.67C-0.807027 96.9148 -0.779895 86.65 6.40397 82.9324L37.7022 66.7356L162.579 2.11858C165.467 0.624341 168.901 0.627324 171.786 2.12657L191.538 12.3908L208.307 21.1058ZM319.998 29.1847C327.183 32.9186 327.183 43.1974 319.998 46.9313L306.48 53.9565L288.999 63.0399L191.538 113.689L184.546 117.321L177.553 120.957L115.643 153.131C112.741 154.639 109.285 154.633 106.388 153.114L76.5849 137.489C69.4323 133.74 69.4452 123.496 76.6072 119.764L177.553 67.1665L191.538 59.8814L237.168 36.1042L254.626 27.0067L280.565 13.4943C283.458 11.9876 286.903 11.9859 289.797 13.4898L319.998 29.1847ZM363.096 101.55L366.351 99.861C372.246 96.6904 372.291 88.1583 366.351 85.0718L331.389 66.9015L322.89 62.4838C319.999 60.9809 316.557 60.9809 313.665 62.4838L300.796 69.1732L191.538 125.952L184.545 129.588L177.553 133.22L139.758 152.861C132.588 156.588 132.569 166.839 139.726 170.591L177.553 190.423L179.928 191.668C182.821 193.186 186.274 193.194 189.174 191.69L191.538 190.465L331.389 117.982L363.096 101.55ZM372.904 217.656C374.245 220.198 373.259 223.345 370.707 224.667V224.667L356.722 231.91V231.91C354.375 233.125 351.836 230.644 352.996 228.27L356.199 221.718C356.543 221.013 356.722 220.239 356.722 219.455V119.06C356.722 115.324 358.805 111.899 362.122 110.181L365.793 108.279V108.279C368.034 107.119 370.707 108.746 370.707 111.269V211.535C370.707 212.82 371.021 214.087 371.621 215.224L372.904 217.656ZM291.353 224.804C291.353 263.978 242.999 295.735 183.353 295.735C123.706 295.735 75.3525 263.978 75.3525 224.804L75.3529 169.117C75.3529 161.579 83.3754 156.751 90.0356 160.281L178.67 207.254C181.599 208.806 185.106 208.806 188.035 207.254L276.67 160.281C283.33 156.751 291.353 161.579 291.353 169.117V224.804Z" fill="#497AD8"/>
<path d="M191.538 47.5902L191.307 47.1468L191.307 47.1468L191.538 47.5902ZM184.546 51.2362L184.777 51.6797L184.777 51.6796L184.546 51.2362ZM177.553 54.8788L177.322 54.4353L177.322 54.4353L177.553 54.8788ZM37.7022 117.102L37.9344 116.659L37.9344 116.659L37.7022 117.102ZM37.7022 66.7356L37.4724 66.2915L37.4724 66.2915L37.7022 66.7356ZM191.538 12.3908L191.769 11.9471L191.769 11.9471L191.538 12.3908ZM306.48 53.9565L306.71 54.4002L306.71 54.4002L306.48 53.9565ZM288.999 63.0399L288.768 62.5962L288.768 62.5962L288.999 63.0399ZM191.538 113.689L191.769 114.133L191.769 114.133L191.538 113.689ZM184.546 117.321L184.315 116.877L184.315 116.877L184.546 117.321ZM177.553 120.957L177.784 121.4L177.784 121.4L177.553 120.957ZM177.553 67.1665L177.322 66.723L177.322 66.723L177.553 67.1665ZM191.538 59.8814L191.769 60.3248L191.769 60.3248L191.538 59.8814ZM237.168 36.1042L237.399 36.5476L237.399 36.5476L237.168 36.1042ZM254.626 27.0067L254.395 26.5633L254.395 26.5633L254.626 27.0067ZM366.351 99.861L366.582 100.305L366.588 100.301L366.351 99.861ZM363.096 101.55L363.326 101.994L363.326 101.994L363.096 101.55ZM366.351 85.0718L366.121 85.5154L366.121 85.5155L366.351 85.0718ZM331.389 66.9015L331.158 67.3451L331.158 67.3452L331.389 66.9015ZM300.796 69.1732L301.027 69.6169L301.027 69.6169L300.796 69.1732ZM191.538 125.952L191.307 125.509L191.307 125.509L191.538 125.952ZM184.545 129.588L184.776 130.031L184.776 130.031L184.545 129.588ZM177.553 133.22L177.322 132.776L177.322 132.776L177.553 133.22ZM177.553 190.423L177.785 189.98L177.785 189.98L177.553 190.423ZM191.538 190.465L191.308 190.021L191.308 190.021L191.538 190.465ZM331.389 117.982L331.159 117.538L331.159 117.538L331.389 117.982ZM75.3525 224.804L74.8525 224.804V224.804H75.3525ZM276.67 160.281L276.436 159.839L276.67 160.281ZM75.3529 169.117L74.8529 169.117L75.3529 169.117ZM90.0356 160.281L89.8014 160.723L90.0356 160.281ZM365.793 108.279L365.563 107.835L365.563 107.835L365.793 108.279ZM362.122 110.181L362.352 110.625L362.122 110.181ZM356.199 221.718L355.749 221.498L356.199 221.718ZM370.707 224.667L370.937 225.111L370.937 225.111L370.707 224.667ZM372.904 217.656L373.346 217.423L372.904 217.656ZM139.758 152.861L139.527 152.418L139.758 152.861ZM139.726 170.591L139.494 171.034L139.494 171.034L139.726 170.591ZM178.67 207.254L178.436 207.696L178.67 207.254ZM188.035 207.254L187.801 206.812L188.035 207.254ZM52.5194 120.025L52.7504 120.469L52.5194 120.025ZM322.89 62.4838L322.659 62.9274L322.89 62.4838ZM313.665 62.4838L313.435 62.0401L313.665 62.4838ZM115.643 153.131L115.873 153.574L115.643 153.131ZM106.388 153.114L106.156 153.557L106.388 153.114ZM162.579 2.11856L162.349 1.67449L162.579 2.11856ZM171.786 2.12656L172.017 1.68289L171.786 2.12656ZM371.621 215.224L371.178 215.457L371.621 215.224ZM280.565 13.4943L280.796 13.9377L280.565 13.4943ZM289.797 13.4898L290.027 13.0461L289.797 13.4898ZM179.928 191.668L179.695 192.111L179.928 191.668ZM189.174 191.69L189.405 192.134L189.174 191.69ZM319.998 29.1847L320.228 28.741L319.998 29.1847ZM352.996 228.27L352.547 228.05L352.996 228.27ZM76.6072 119.764L76.3762 119.321L76.6072 119.764ZM6.40397 82.9323L6.17417 82.4883L6.40397 82.9323ZM208.307 21.1058L208.077 21.5495L208.307 21.1058ZM191.769 48.0336L208.548 39.2908L208.086 38.404L191.307 47.1468L191.769 48.0336ZM184.777 51.6796L191.769 48.0335L191.307 47.1468L184.314 50.7929L184.777 51.6796ZM177.784 55.3222L184.777 51.6797L184.315 50.7928L177.322 54.4353L177.784 55.3222ZM52.7504 120.469L177.784 55.3222L177.322 54.4353L52.2883 119.582L52.7504 120.469ZM37.4701 117.545L43.023 120.456L43.4873 119.571L37.9344 116.659L37.4701 117.545ZM6.12493 101.113L37.4701 117.545L37.9344 116.659L6.58922 100.228L6.12493 101.113ZM37.4724 66.2915L6.17417 82.4883L6.63377 83.3764L37.932 67.1796L37.4724 66.2915ZM162.349 1.67449L37.4724 66.2915L37.932 67.1796L162.809 2.56263L162.349 1.67449ZM191.769 11.9471L172.017 1.68289L171.555 2.57023L191.308 12.8344L191.769 11.9471ZM208.538 20.6622L191.769 11.9471L191.308 12.8344L208.077 21.5495L208.538 20.6622ZM306.71 54.4002L320.228 47.375L319.767 46.4877L306.249 53.5128L306.71 54.4002ZM289.229 63.4836L306.71 54.4002L306.249 53.5128L288.768 62.5962L289.229 63.4836ZM191.769 114.133L289.229 63.4836L288.768 62.5962L191.308 113.245L191.769 114.133ZM184.776 117.765L191.769 114.133L191.308 113.245L184.315 116.877L184.776 117.765ZM177.784 121.4L184.776 117.765L184.315 116.877L177.322 120.513L177.784 121.4ZM115.873 153.574L177.784 121.4L177.322 120.513L115.412 152.687L115.873 153.574ZM76.3527 137.932L106.156 153.557L106.62 152.671L76.8171 137.047L76.3527 137.932ZM177.322 66.723L76.3762 119.321L76.8383 120.208L177.784 67.6099L177.322 66.723ZM191.307 59.4379L177.322 66.723L177.784 67.6099L191.769 60.3248L191.307 59.4379ZM236.937 35.6608L191.307 59.438L191.769 60.3248L237.399 36.5476L236.937 35.6608ZM254.395 26.5633L236.937 35.6608L237.399 36.5476L254.857 27.4501L254.395 26.5633ZM280.334 13.0509L254.395 26.5633L254.857 27.4501L280.796 13.9377L280.334 13.0509ZM320.228 28.741L290.027 13.0461L289.566 13.9334L319.767 29.6284L320.228 28.741ZM366.121 99.4171L362.866 101.106L363.326 101.994L366.582 100.305L366.121 99.4171ZM366.121 85.5155C371.693 88.4108 371.667 96.4342 366.115 99.4206L366.588 100.301C372.826 96.9466 372.889 87.9057 366.582 84.6281L366.121 85.5155ZM331.158 67.3452L366.121 85.5154L366.582 84.6281L331.619 66.4578L331.158 67.3452ZM322.659 62.9274L331.158 67.3451L331.619 66.4579L323.12 62.0401L322.659 62.9274ZM301.027 69.6169L313.896 62.9274L313.435 62.0401L300.566 68.7296L301.027 69.6169ZM191.768 126.396L301.027 69.6169L300.566 68.7296L191.307 125.509L191.768 126.396ZM184.776 130.031L191.769 126.396L191.307 125.509L184.315 129.144L184.776 130.031ZM177.783 133.663L184.776 130.031L184.315 129.144L177.322 132.776L177.783 133.663ZM139.988 153.305L177.783 133.663L177.322 132.776L139.527 152.418L139.988 153.305ZM177.785 189.98L139.958 170.148L139.494 171.034L177.321 190.866L177.785 189.98ZM180.16 191.225L177.785 189.98L177.321 190.866L179.695 192.111L180.16 191.225ZM191.308 190.021L188.944 191.246L189.405 192.134L191.768 190.909L191.308 190.021ZM331.159 117.538L191.308 190.021L191.768 190.909L331.619 118.426L331.159 117.538ZM362.866 101.106L331.159 117.538L331.619 118.426L363.326 101.994L362.866 101.106ZM356.952 232.354L370.937 225.111L370.477 224.223L356.492 231.466L356.952 232.354ZM355.749 221.498L352.547 228.05L353.446 228.489L356.648 221.937L355.749 221.498ZM356.222 119.06V219.455H357.222V119.06H356.222ZM365.563 107.835L361.892 109.737L362.352 110.625L366.023 108.723L365.563 107.835ZM371.207 211.535V111.269H370.207V211.535H371.207ZM373.346 217.423L372.063 214.991L371.178 215.457L372.462 217.889L373.346 217.423ZM183.353 296.235C213.259 296.235 240.358 288.275 259.995 275.378C279.627 262.484 291.853 244.614 291.853 224.804H290.853C290.853 244.168 278.901 261.764 259.446 274.542C239.994 287.317 213.092 295.235 183.353 295.235V296.235ZM74.8525 224.804C74.8525 244.614 87.078 262.484 106.711 275.378C126.347 288.275 153.446 296.235 183.353 296.235V295.235C153.613 295.235 126.711 287.317 107.259 274.542C87.8037 261.764 75.8525 244.168 75.8525 224.804H74.8525ZM74.8529 169.117L74.8525 224.804L75.8525 224.804L75.8529 169.117L74.8529 169.117ZM178.904 206.812L90.2697 159.839L89.8014 160.723L178.436 207.696L178.904 206.812ZM276.436 159.839L187.801 206.812L188.269 207.696L276.904 160.723L276.436 159.839ZM291.853 224.804V169.117H290.853V224.804H291.853ZM276.904 160.723C283.231 157.369 290.853 161.956 290.853 169.117H291.853C291.853 161.202 283.429 156.133 276.436 159.839L276.904 160.723ZM75.8529 169.117C75.8529 161.956 83.4743 157.369 89.8014 160.723L90.2697 159.839C83.2766 156.133 74.8529 161.202 74.8529 169.117L75.8529 169.117ZM366.023 108.723C367.931 107.736 370.207 109.121 370.207 111.269H371.207C371.207 108.371 368.137 106.503 365.563 107.835L366.023 108.723ZM357.222 119.06C357.222 115.511 359.201 112.257 362.352 110.625L361.892 109.737C358.409 111.541 356.222 115.137 356.222 119.06H357.222ZM356.648 221.937C357.026 221.164 357.222 220.315 357.222 219.455H356.222C356.222 220.163 356.06 220.862 355.749 221.498L356.648 221.937ZM370.937 225.111C373.735 223.662 374.817 220.21 373.346 217.423L372.462 217.889C373.673 220.186 372.782 223.029 370.477 224.223L370.937 225.111ZM139.527 152.418C131.998 156.33 131.979 167.094 139.494 171.034L139.958 170.148C133.159 166.584 133.177 156.845 139.988 153.305L139.527 152.418ZM178.436 207.696C181.511 209.325 185.194 209.325 188.269 207.696L187.801 206.812C185.019 208.287 181.686 208.287 178.904 206.812L178.436 207.696ZM52.2883 119.582C49.5297 121.019 46.2422 121.015 43.4873 119.571L43.023 120.456C46.0679 122.053 49.7014 122.058 52.7504 120.469L52.2883 119.582ZM323.12 62.0401C320.085 60.4621 316.471 60.4621 313.435 62.0401L313.896 62.9274C316.643 61.4997 319.913 61.4997 322.659 62.9274L323.12 62.0401ZM115.412 152.687C112.655 154.12 109.372 154.114 106.62 152.671L106.156 153.557C109.197 155.151 112.826 155.158 115.873 153.574L115.412 152.687ZM162.809 2.56263C165.552 1.14311 168.815 1.14594 171.555 2.57023L172.017 1.68289C168.987 0.108675 165.382 0.105543 162.349 1.67449L162.809 2.56263ZM370.207 211.535C370.207 212.902 370.54 214.248 371.178 215.457L372.063 214.991C371.501 213.925 371.207 212.739 371.207 211.535H370.207ZM280.796 13.9377C283.544 12.5064 286.817 12.5048 289.566 13.9334L290.027 13.0461C286.989 11.4671 283.371 11.4688 280.334 13.0509L280.796 13.9377ZM179.695 192.111C182.734 193.704 186.359 193.713 189.405 192.134L188.944 191.246C186.189 192.675 182.909 192.667 180.16 191.225L179.695 192.111ZM320.228 47.375C327.773 43.4544 327.773 32.6616 320.228 28.741L319.767 29.6284C326.593 33.1755 326.593 42.9404 319.767 46.4877L320.228 47.375ZM356.492 231.466C354.573 232.46 352.497 230.431 353.446 228.489L352.547 228.05C351.175 230.858 354.177 233.791 356.952 232.354L356.492 231.466ZM76.8171 137.047C70.0221 133.484 70.0344 123.753 76.8383 120.208L76.3762 119.321C68.8561 123.239 68.8425 133.995 76.3527 137.932L76.8171 137.047ZM6.58922 100.228C-0.216675 96.6598 -0.190898 86.9082 6.63377 83.3764L6.17417 82.4883C-1.36889 86.3918 -1.39738 97.1699 6.12493 101.113L6.58922 100.228ZM208.548 39.2908C216.083 35.3645 216.077 24.5804 208.538 20.6622L208.077 21.5495C214.898 25.0946 214.903 34.8516 208.086 38.404L208.548 39.2908Z" fill="#497AD8"/>
</svg>
