<svg width="185" height="185" viewBox="0 0 185 185" fill="none" xmlns="http://www.w3.org/2000/svg">
<circle cx="92.5" cy="92.5" r="92.5" fill="#497AD8"/>
<g clip-path="url(#clip0_1536_1424)">
<path fill-rule="evenodd" clip-rule="evenodd" d="M99.6578 48.3195C102.128 49.6137 102.13 53.1755 99.6613 54.4723L93.8893 57.5043L91.4841 58.7688L89.0785 60.032L46.0669 82.6248C45.068 83.1495 43.8776 83.1482 42.88 82.621L40.9698 81.6111L30.1871 75.9125C27.7226 74.6102 27.732 71.0503 30.2032 69.7611L40.9698 64.144L83.9274 41.7347C84.9209 41.2165 86.1022 41.2176 87.0946 41.7375L93.8893 45.2971L99.6578 48.3195ZM138.08 51.1213C140.551 52.4162 140.551 55.9809 138.08 57.2758L133.429 59.7122L127.416 62.8623L93.8893 80.4275L91.4841 81.6871L89.0785 82.9481L67.7814 94.106C66.7831 94.629 65.5943 94.6269 64.5977 94.1001L54.3454 88.6814C51.8849 87.3812 51.8894 83.8286 54.3531 82.5343L89.0785 64.2934L93.8893 61.767L109.586 53.521L115.592 50.366L124.515 45.6798C125.51 45.1573 126.695 45.1567 127.69 45.6783L138.08 51.1213ZM152.905 76.2177L154.025 75.6319C156.053 74.5324 156.068 71.5734 154.025 70.503L141.998 64.2015L139.074 62.6695C138.08 62.1483 136.896 62.1483 135.901 62.6695L131.474 64.9894L93.8893 84.6803L91.4837 85.9413L89.0785 87.2009L76.077 94.0124C73.6105 95.3049 73.604 98.86 76.066 100.161L89.0785 107.039L89.8955 107.471C90.8907 107.997 92.0785 108 93.0761 107.478L93.8893 107.054L141.998 81.9163L152.905 76.2177ZM156.279 116.483C156.741 117.365 156.401 118.456 155.523 118.915L150.713 121.427C149.905 121.848 149.032 120.988 149.431 120.164L150.533 117.892C150.651 117.648 150.713 117.379 150.713 117.107V82.2902C150.713 80.9945 151.429 79.8067 152.57 79.2109L153.833 78.5513C154.604 78.149 155.523 78.7133 155.523 79.5882V114.361C155.523 114.806 155.631 115.246 155.838 115.64L156.279 116.483ZM128.226 118.962C128.226 132.548 111.592 143.561 91.0737 143.561C70.5551 143.561 53.9215 132.548 53.9215 118.962L53.9216 99.65C53.9216 97.0358 56.6814 95.3615 58.9725 96.5857L89.4627 112.876C90.4703 113.414 91.6767 113.414 92.6843 112.876L123.175 96.5857C125.466 95.3615 128.226 97.0358 128.226 99.65V118.962Z" fill="white"/>
<path d="M154.025 75.6319L154.104 75.7859L154.106 75.7845L154.025 75.6319ZM93.9684 57.6581L99.7404 54.6261L99.5815 54.3186L93.8095 57.3506L93.9684 57.6581ZM91.5632 58.9226L93.9684 57.6581L93.8095 57.3506L91.4039 58.615L91.5632 58.9226ZM89.1576 60.1858L91.5632 58.9226L91.4042 58.615L88.9987 59.8782L89.1576 60.1858ZM46.146 82.7788L89.1576 60.1858L88.9987 59.8782L45.9871 82.4712L46.146 82.7788ZM40.8896 81.7648L42.7998 82.7743L42.9595 82.4674L41.0493 81.4575L40.8896 81.7648ZM30.1069 76.0661L40.8896 81.7648L41.0493 81.4575L30.2666 75.7592L30.1069 76.0661ZM40.8904 63.99L30.1238 69.6071L30.2819 69.9151L41.0485 64.298L40.8904 63.99ZM83.8479 41.5807L40.8904 63.99L41.0485 64.298L84.0062 41.8887L83.8479 41.5807ZM93.9684 45.1433L87.1737 41.5836L87.0148 41.8914L93.8098 45.451L93.9684 45.1433ZM99.737 48.1657L93.9684 45.1433L93.8098 45.451L99.5784 48.4734L99.737 48.1657ZM133.508 59.8661L138.158 57.4297L138 57.122L133.35 59.5583L133.508 59.8661ZM127.495 63.0162L133.508 59.8661L133.35 59.5583L127.336 62.7085L127.495 63.0162ZM93.9684 80.5815L127.495 63.0162L127.336 62.7085L93.8098 80.2739L93.9684 80.5815ZM91.5628 81.8411L93.9684 80.5815L93.8098 80.2739L91.4042 81.5331L91.5628 81.8411ZM89.1576 83.1017L91.5628 81.8411L91.4042 81.5331L88.9987 82.7941L89.1576 83.1017ZM67.8602 94.2597L89.1576 83.1017L88.9987 82.7941L67.7016 93.9521L67.8602 94.2597ZM54.2652 88.835L64.5175 94.2538L64.6772 93.9465L54.425 88.5281L54.2652 88.835ZM88.9987 64.1396L54.2733 82.3807L54.4323 82.6883L89.1576 64.4472L88.9987 64.1396ZM93.8095 61.6132L88.9987 64.1396L89.1576 64.4472L93.9684 61.9207L93.8095 61.6132ZM109.506 53.3672L93.8095 61.6132L93.9684 61.9207L109.665 53.6748L109.506 53.3672ZM115.512 50.2122L109.506 53.3672L109.665 53.6748L115.671 50.5197L115.512 50.2122ZM124.435 45.5261L115.512 50.2122L115.671 50.5197L124.594 45.8336L124.435 45.5261ZM138.158 50.9675L127.769 45.5244L127.611 45.8321L138 51.2752L138.158 50.9675ZM153.946 75.478L152.826 76.0637L152.984 76.3717L154.104 75.7859L153.946 75.478ZM153.946 70.6569C155.862 71.661 155.853 74.4435 153.943 75.4792L154.106 75.7845C156.252 74.6212 156.274 71.4858 154.104 70.3491L153.946 70.6569ZM141.918 64.3554L153.946 70.6569L154.104 70.3491L142.077 64.0477L141.918 64.3554ZM138.995 62.8233L141.918 64.3554L142.077 64.0477L139.153 62.5156L138.995 62.8233ZM131.553 65.1432L135.98 62.8233L135.822 62.5156L131.395 64.8355L131.553 65.1432ZM93.9681 84.8343L131.553 65.1432L131.395 64.8355L93.8095 84.5267L93.9681 84.8343ZM91.5628 86.0949L93.9681 84.8343L93.8095 84.5267L91.4042 85.7873L91.5628 86.0949ZM89.1572 87.3545L91.5628 86.0949L91.4042 85.7873L88.9987 87.0469L89.1572 87.3545ZM76.1558 94.1664L89.1572 87.3545L88.9987 87.0469L75.9972 93.8588L76.1558 94.1664ZM89.1579 106.885L76.1454 100.008L75.9858 100.315L88.9983 107.193L89.1579 106.885ZM89.9749 107.317L89.1579 106.885L88.9983 107.193L89.815 107.624L89.9749 107.317ZM93.8098 106.9L92.9966 107.324L93.1552 107.632L93.9681 107.208L93.8098 106.9ZM141.919 81.7623L93.8098 106.9L93.9681 107.208L142.077 82.0703L141.919 81.7623ZM152.826 76.0637L141.919 81.7623L142.077 82.0703L152.984 76.3717L152.826 76.0637ZM150.791 121.581L155.602 119.069L155.444 118.761L150.633 121.273L150.791 121.581ZM150.378 117.816L149.276 120.088L149.585 120.24L150.687 117.968L150.378 117.816ZM150.54 82.2902V117.107H150.884V82.2902H150.54ZM153.754 78.3973L152.491 79.0569L152.649 79.3649L153.912 78.7053L153.754 78.3973ZM155.695 114.361V79.5882H155.351V114.361H155.695ZM156.431 116.403L155.99 115.559L155.685 115.721L156.127 116.564L156.431 116.403ZM91.0733 143.735C101.361 143.735 110.683 140.974 117.438 136.501C124.192 132.03 128.397 125.832 128.397 118.962H128.053C128.053 125.678 123.942 131.78 117.249 136.212C110.558 140.642 101.304 143.388 91.0733 143.388V143.735ZM53.7491 118.962C53.7491 125.832 57.9547 132.03 64.7085 136.501C71.4632 140.974 80.7853 143.735 91.0733 143.735V143.388C80.8428 143.388 71.5885 140.642 64.897 136.212C58.2044 131.78 54.0931 125.678 54.0931 118.962H53.7491ZM53.7493 99.65L53.7491 118.962H54.0931L54.0933 99.65H53.7493ZM89.5429 112.723L59.0527 96.4324L58.8916 96.739L89.3819 113.029L89.5429 112.723ZM123.094 96.4324L92.6034 112.723L92.7644 113.029L123.255 96.739L123.094 96.4324ZM128.397 118.962V99.65H128.053V118.962H128.397ZM123.255 96.739C125.431 95.5758 128.053 97.1666 128.053 99.65H128.397C128.397 96.9051 125.499 95.1471 123.094 96.4324L123.255 96.739ZM54.0933 99.65C54.0933 97.1666 56.715 95.5758 58.8916 96.739L59.0527 96.4324C56.647 95.1471 53.7493 96.9051 53.7493 99.65H54.0933ZM153.912 78.7053C154.568 78.363 155.351 78.8433 155.351 79.5882H155.695C155.695 78.5832 154.639 77.9354 153.754 78.3973L153.912 78.7053ZM150.884 82.2902C150.884 81.0594 151.565 79.9309 152.649 79.3649L152.491 79.0569C151.293 79.6826 150.54 80.9297 150.54 82.2902H150.884ZM150.687 117.968C150.817 117.7 150.884 117.406 150.884 117.107H150.54C150.54 117.353 150.485 117.595 150.378 117.816L150.687 117.968ZM155.602 119.069C156.565 118.566 156.937 117.369 156.431 116.403L156.127 116.564C156.543 117.361 156.237 118.347 155.444 118.761L155.602 119.069ZM75.9972 93.8588C73.4072 95.2155 73.4007 98.9484 75.9858 100.315L76.1454 100.008C73.8066 98.7716 73.8128 95.3941 76.1558 94.1664L75.9972 93.8588ZM89.3819 113.029C90.4397 113.594 91.7066 113.594 92.7644 113.029L92.6034 112.723C91.6464 113.234 90.4999 113.234 89.5429 112.723L89.3819 113.029ZM45.9871 82.4712C45.0381 82.9696 43.9072 82.9682 42.9595 82.4674L42.7998 82.7743C43.8472 83.3282 45.0972 83.3299 46.146 82.7788L45.9871 82.4712ZM139.153 62.5156C138.109 61.9684 136.866 61.9684 135.822 62.5156L135.98 62.8233C136.925 62.3282 138.05 62.3282 138.995 62.8233L139.153 62.5156ZM67.7016 93.9521C66.7532 94.449 65.6238 94.4469 64.6772 93.9465L64.5175 94.2538C65.5636 94.8066 66.812 94.809 67.8602 94.2597L67.7016 93.9521ZM84.0062 41.8887C84.9498 41.3964 86.0722 41.3974 87.0148 41.8914L87.1737 41.5836C86.1314 41.0377 84.8913 41.0366 83.8479 41.5807L84.0062 41.8887ZM155.351 114.361C155.351 114.835 155.466 115.302 155.685 115.721L155.99 115.559C155.796 115.189 155.695 114.778 155.695 114.361H155.351ZM124.594 45.8336C125.539 45.3372 126.665 45.3367 127.611 45.8321L127.769 45.5244C126.724 44.9768 125.48 44.9774 124.435 45.5261L124.594 45.8336ZM89.815 107.624C90.8604 108.177 92.1074 108.18 93.1552 107.632L92.9966 107.324C92.0489 107.82 90.9206 107.817 89.9749 107.317L89.815 107.624ZM138.158 57.4297C140.754 56.07 140.754 52.3271 138.158 50.9675L138 51.2752C140.348 52.5053 140.348 55.8918 138 57.122L138.158 57.4297ZM150.633 121.273C149.973 121.617 149.259 120.914 149.585 120.24L149.276 120.088C148.804 121.062 149.837 122.079 150.791 121.581L150.633 121.273ZM54.425 88.5281C52.0875 87.2924 52.0917 83.9177 54.4323 82.6883L54.2733 82.3807C51.6864 83.7395 51.6817 87.4697 54.2652 88.835L54.425 88.5281ZM30.2666 75.7592C27.9253 74.5218 27.9342 71.1399 30.2819 69.9151L30.1238 69.6071C27.529 70.9608 27.5192 74.6987 30.1069 76.0661L30.2666 75.7592ZM99.7404 54.6261C102.332 53.2645 102.33 49.5246 99.737 48.1657L99.5784 48.4734C101.925 49.7028 101.927 53.0866 99.5815 54.3186L99.7404 54.6261Z" fill="white"/>
</g>
<defs>
<clipPath id="clip0_1536_1424">
<rect width="129" height="103" fill="white" transform="translate(28 41)"/>
</clipPath>
</defs>
</svg>
