<svg width="31" height="31" viewBox="0 0 31 31" fill="none" xmlns="http://www.w3.org/2000/svg">
<path d="M11.5087 26.6987C11.2633 26.6987 11.0179 26.6083 10.8242 26.4146C10.4496 26.04 10.4496 25.42 10.8242 25.0454L19.2458 16.6237C19.8658 16.0037 19.8658 14.9962 19.2458 14.3762L10.8242 5.95458C10.4496 5.57999 10.4496 4.95999 10.8242 4.58541C11.1987 4.21083 11.8187 4.21083 12.1933 4.58541L20.615 13.0071C21.2737 13.6658 21.6483 14.5571 21.6483 15.5C21.6483 16.4429 21.2867 17.3342 20.615 17.9929L12.1933 26.4146C11.9996 26.5954 11.7542 26.6987 11.5087 26.6987Z" fill="white"/>
</svg>
