<svg width="32" height="33" viewBox="0 0 32 33" fill="none" xmlns="http://www.w3.org/2000/svg">
<path d="M22.6667 29.2188H9.33335C4.46669 29.2188 1.66669 26.3313 1.66669 21.3125V11.6875C1.66669 6.66875 4.46669 3.78125 9.33335 3.78125H22.6667C27.5334 3.78125 30.3334 6.66875 30.3334 11.6875V21.3125C30.3334 26.3313 27.5334 29.2188 22.6667 29.2188ZM9.33335 5.84375C5.52002 5.84375 3.66669 7.755 3.66669 11.6875V21.3125C3.66669 25.245 5.52002 27.1562 9.33335 27.1562H22.6667C26.48 27.1562 28.3334 25.245 28.3334 21.3125V11.6875C28.3334 7.755 26.48 5.84375 22.6667 5.84375H9.33335Z" fill="white"/>
<path d="M15.9997 17.6962C14.8797 17.6962 13.7464 17.3387 12.8797 16.61L8.70635 13.1725C8.27968 12.815 8.19969 12.1687 8.54636 11.7287C8.89302 11.2887 9.51969 11.2062 9.94636 11.5637L14.1197 15.0012C15.133 15.84 16.853 15.84 17.8663 15.0012L22.0397 11.5637C22.4663 11.2062 23.1064 11.275 23.4397 11.7287C23.7864 12.1687 23.7197 12.8287 23.2797 13.1725L19.1064 16.61C18.253 17.3387 17.1197 17.6962 15.9997 17.6962Z" fill="white"/>
</svg>
