<svg width="32" height="33" viewBox="0 0 32 33" fill="none" xmlns="http://www.w3.org/2000/svg">
<path d="M16 22.4538C12.8133 22.4538 10.2267 19.7863 10.2267 16.5C10.2267 13.2138 12.8133 10.5463 16 10.5463C19.1867 10.5463 21.7733 13.2138 21.7733 16.5C21.7733 19.7863 19.1867 22.4538 16 22.4538ZM16 12.6088C13.92 12.6088 12.2267 14.355 12.2267 16.5C12.2267 18.645 13.92 20.3913 16 20.3913C18.08 20.3913 19.7733 18.645 19.7733 16.5C19.7733 14.355 18.08 12.6088 16 12.6088Z" fill="white"/>
<path d="M16 28.9025C10.9867 28.9025 6.25334 25.8775 3 20.625C1.58667 18.3563 1.58667 14.6575 3 12.375C6.26667 7.1225 11 4.0975 16 4.0975C21 4.0975 25.7333 7.1225 28.9867 12.375C30.4 14.6438 30.4 18.3425 28.9867 20.625C25.7333 25.8775 21 28.9025 16 28.9025ZM16 6.16C11.6933 6.16 7.57334 8.8275 4.69334 13.4888C3.69334 15.0975 3.69334 17.9025 4.69334 19.5113C7.57334 24.1725 11.6933 26.84 16 26.84C20.3067 26.84 24.4267 24.1725 27.3067 19.5113C28.3067 17.9025 28.3067 15.0975 27.3067 13.4888C24.4267 8.8275 20.3067 6.16 16 6.16Z" fill="white"/>
</svg>
