<svg width="35" height="35" viewBox="0 0 35 35" fill="none" xmlns="http://www.w3.org/2000/svg">
<path d="M17.5 33.1771C8.85207 33.1771 1.82291 26.1479 1.82291 17.5C1.82291 8.85207 8.85207 1.82291 17.5 1.82291C26.1479 1.82291 33.1771 8.85207 33.1771 17.5C33.1771 26.1479 26.1479 33.1771 17.5 33.1771ZM17.5 4.01041C10.0625 4.01041 4.01041 10.0625 4.01041 17.5C4.01041 24.9375 10.0625 30.9896 17.5 30.9896C24.9375 30.9896 30.9896 24.9375 30.9896 17.5C30.9896 10.0625 24.9375 4.01041 17.5 4.01041Z" fill="white"/>
<path d="M13.125 31.7188H11.6667C11.0688 31.7188 10.5729 31.2229 10.5729 30.625C10.5729 30.0271 11.0396 29.5458 11.6375 29.5313C9.34792 21.7146 9.34792 13.2854 11.6375 5.46875C11.0396 5.45417 10.5729 4.97292 10.5729 4.375C10.5729 3.77708 11.0688 3.28125 11.6667 3.28125H13.125C13.475 3.28125 13.8104 3.45625 14.0146 3.73333C14.2188 4.025 14.2771 4.38958 14.1604 4.725C11.4188 12.9646 11.4188 22.0354 14.1604 30.2896C14.2771 30.625 14.2188 30.9896 14.0146 31.2813C13.8104 31.5438 13.475 31.7188 13.125 31.7188Z" fill="white"/>
<path d="M21.875 31.7188C21.7583 31.7188 21.6417 31.7042 21.525 31.6604C20.9563 31.4708 20.6354 30.8438 20.8396 30.275C23.5813 22.0354 23.5813 12.9646 20.8396 4.71042C20.65 4.14167 20.9563 3.51459 21.525 3.32501C22.1083 3.13542 22.7208 3.44167 22.9104 4.01042C25.8125 12.7021 25.8125 22.2688 22.9104 30.9458C22.7646 31.4271 22.3271 31.7188 21.875 31.7188Z" fill="white"/>
<path d="M17.5 25.0833C13.4313 25.0833 9.37708 24.5146 5.46875 23.3625C5.45417 23.9458 4.97292 24.4271 4.375 24.4271C3.77708 24.4271 3.28125 23.9312 3.28125 23.3333V21.875C3.28125 21.525 3.45625 21.1896 3.73333 20.9854C4.025 20.7812 4.38958 20.7229 4.725 20.8396C12.9646 23.5812 22.05 23.5812 30.2896 20.8396C30.625 20.7229 30.9896 20.7812 31.2813 20.9854C31.5729 21.1896 31.7333 21.525 31.7333 21.875V23.3333C31.7333 23.9312 31.2375 24.4271 30.6396 24.4271C30.0417 24.4271 29.5604 23.9604 29.5458 23.3625C25.6229 24.5146 21.5688 25.0833 17.5 25.0833Z" fill="white"/>
<path d="M30.625 14.2188C30.5083 14.2188 30.3917 14.2042 30.275 14.1604C22.0354 11.4188 12.95 11.4188 4.71043 14.1604C4.12709 14.35 3.51459 14.0438 3.32501 13.475C3.15001 12.8917 3.45626 12.2792 4.02501 12.0896C12.7167 9.1875 22.2833 9.1875 30.9604 12.0896C31.5292 12.2792 31.85 12.9063 31.6458 13.475C31.5146 13.9271 31.0771 14.2188 30.625 14.2188Z" fill="white"/>
</svg>
