<svg width="32" height="33" viewBox="0 0 32 33" fill="none" xmlns="http://www.w3.org/2000/svg">
<path d="M15.3334 29.9062C7.80002 29.9062 1.66669 23.5813 1.66669 15.8125C1.66669 8.04375 7.80002 1.71875 15.3334 1.71875C22.8667 1.71875 29 8.04375 29 15.8125C29 23.5813 22.8667 29.9062 15.3334 29.9062ZM15.3334 3.78125C8.89335 3.78125 3.66669 9.185 3.66669 15.8125C3.66669 22.44 8.89335 27.8438 15.3334 27.8438C21.7734 27.8438 27 22.44 27 15.8125C27 9.185 21.7734 3.78125 15.3334 3.78125Z" fill="white"/>
<path d="M29.3333 31.2813C29.08 31.2813 28.8266 31.185 28.6266 30.9788L25.96 28.2288C25.5733 27.83 25.5733 27.17 25.96 26.7713C26.3466 26.3725 26.9867 26.3725 27.3733 26.7713L30.04 29.5213C30.4267 29.92 30.4267 30.58 30.04 30.9788C29.84 31.185 29.5867 31.2813 29.3333 31.2813Z" fill="white"/>
</svg>
