<svg width="35" height="35" viewBox="0 0 35 35" fill="none" xmlns="http://www.w3.org/2000/svg">
<path d="M21.875 33.1771H13.125C5.20624 33.1771 1.82291 29.7937 1.82291 21.875V13.125C1.82291 5.20624 5.20624 1.82291 13.125 1.82291H21.875C29.7937 1.82291 33.1771 5.20624 33.1771 13.125V21.875C33.1771 29.7937 29.7937 33.1771 21.875 33.1771ZM13.125 4.01041C6.40207 4.01041 4.01041 6.40207 4.01041 13.125V21.875C4.01041 28.5979 6.40207 30.9896 13.125 30.9896H21.875C28.5979 30.9896 30.9896 28.5979 30.9896 21.875V13.125C30.9896 6.40207 28.5979 4.01041 21.875 4.01041H13.125Z" fill="white"/>
<path d="M15.4292 22.7208C15.1375 22.7208 14.8604 22.6042 14.6562 22.4L10.5292 18.2729C10.1062 17.85 10.1062 17.15 10.5292 16.7271C10.9521 16.3042 11.6521 16.3042 12.075 16.7271L15.4292 20.0812L22.925 12.5854C23.3479 12.1625 24.0479 12.1625 24.4708 12.5854C24.8937 13.0083 24.8937 13.7083 24.4708 14.1312L16.2021 22.4C15.9979 22.6042 15.7208 22.7208 15.4292 22.7208Z" fill="white"/>
</svg>
